<svg id="Calque_1" data-name="Calque 1" xmlns="http://www.w3.org/2000/svg" viewBox="0 0 47 55.7"><defs><style>.cls-1{fill:#fff}</style></defs><title>lock</title><path class="cls-1" d="M42 25.2h-4.3v-11a14.2 14.2 0 1 0-28.4 0v11H5a5 5 0 0 0-5 5v20.5a5 5 0 0 0 5 5h37a5 5 0 0 0 5-5V30.2a5 5 0 0 0-5-5zM24.5 38.3v4.9h-2v-4.9a1.94 1.94 0 0 1-1-1.7 2 2 0 0 1 4 0 1.94 1.94 0 0 1-1 1.7zm11.2-13.1H11.4v-11a12.2 12.2 0 0 1 24.4 0v11h-.1z" id="lock-fill"/><filter id="dropshadow" height="130%"><feGaussianBlur in="SourceAlpha" stdDeviation="3"/><feOffset dx="2" dy="2" result="offsetblur"/><feMerge><feMergeNode/><feMergeNode in="SourceGraphic"/></feMerge></filter></svg>