<svg width="665" height="286" viewBox="0 0 665 286" xmlns="http://www.w3.org/2000/svg"><title>Logo</title><g fill="#FFE81F" fill-rule="evenodd"><path d="M1.89 146.5l3.78 11.105L46.78 278.442l1.936 5.692H84.35l2.013-5.52 18.558-50.895c1.6 4.652 3.328 9.667 5.057 14.678 6.39 18.527 12.792 37.02 12.792 37.02l1.955 5.648h35.959l1.946-5.67 41.637-121.33 3.817-11.12h-52.257l-1.95 5.662a7217.51 7217.51 0 0 1-10.804 31.142c-.534-1.535-1.09-3.15-1.665-4.84l-9.097-26.716-1.936-5.69H79.856l-1.973 5.61-10.97 31.173A13386.736 13386.736 0 0 1 55.88 152.13l-1.975-5.598-5.936-.004-34.345-.022L1.89 146.5zm122.474 8.4l9.098 26.72c4.923 14.448 9.317 26.003 9.89 26.003a.04.04 0 0 0 .025-.01c.63-.557 18.437-52.272 18.437-52.272h34.513L154.69 276.67H130.7s-25.603-73.95-25.498-74.232l-26.727 73.3H54.73L13.615 154.902l34.345.023s18.814 53.332 19.065 53.332c0 0 0-.002.002-.003L85.8 154.9h38.564zM419.51 201.936c.015-2.12.027-4.5.04-6.88.01-2.1.02-4.203.024-6.13l11.74.062c6.745.036 16.896.092 18.876.653 2.525 1.535 3.935 3.905 3.78 6.36-.083 1.327-.714 3.766-4.008 5.196-1.837.798-4.764 1.047-19.486 1.047-4.67 0-8.272-.136-10.965-.307zM664.573 146.5h-85.857c-16.824 0-26.775 6.64-32.16 12.21-8.758 9.06-10.82 20.468-10.663 25.846.01.448.004.908-.002 1.387-.076 8.74 1.21 18.635 17.48 34.89 3.218 3.62 8.6 9.694 10.632 12.712-4.447.547-15.72.547-27.558.547h-5.028l-6.103-.002c-20.886 0-38.498-.06-42.108-.773-.505-.33-1.213-.896-1.992-1.572 7.217-4.444 14.513-11.332 17.948-17.222 2.086-3.582 4.385-9.7 5.35-14.24 2.14-10.1-1.39-22.284-9.444-32.6-9.398-12.04-23.07-19.24-37.51-19.76l-.152-.008H364.83l.016 8.413.23 120.66.018 8.34 8.34.037 37.672.167 8.382.037.05-8.384.162-28.025c.77.73 1.564 1.49 2.38 2.273 25.423 24.388 33.956 31.145 41.515 32.855 2.077.462 5.512 1.23 66.657 1.246h2.916c33.103 0 49.718 0 59.602-.955 11.32-1.095 14.963-3.663 20.42-8.107l.183-.148c11.212-9.116 17.128-22.91 15.44-35.995-1.1-8.51-3.35-12.046-12.51-23.473l-2.72-3.4c-3.19-3.986-7.046-8.8-9.63-12.04-2.083-2.608-3.72-4.922-4.708-6.437 1.297-.003 2.982-.006 5.16-.006 17.205 0 51.3.114 51.642.116l8.404.027.02-8.403.08-31.803.022-8.41zm-234.096 64.138c16.128 0 19.402-.25 22.834-1.742 11.585-5.037 12.204-19.917 1.092-26.52-2.434-1.45-5.562-1.688-23.044-1.784l-20.23-.106c.167.158-.064 28.932-.064 28.932s5.067 1.22 19.412 1.22zm225.682-55.744l-.08 31.802s-34.253-.115-51.668-.115c-5.793 0-9.723.015-9.91.05-3 .545-4.912 6.927-4.06 9.728.418 1.416 3.558 6.044 6.956 10.294 3.39 4.25 8.962 11.21 12.362 15.457 8.73 10.892 9.927 13.043 10.733 19.298 1.313 10.16-3.492 21.156-12.41 28.407-8.94 7.273-8.548 7.324-74.906 7.324h-2.914c-40.358-.01-61.702-.346-64.81-1.04-5.518-1.248-14.312-8.425-37.555-30.725-8.36-8.013-16.064-15.03-16.46-15.032-.01 0-.015.007-.015.017l-.274 46.78-37.67-.166-.233-120.66h84.012c25.32.915 42.456 26.14 39.046 42.228-.776 3.65-2.748 8.942-4.387 11.754-3.368 5.77-11.94 13.18-18.9 16.36-2.57 1.163-4.668 2.517-4.668 3 0 1.794 8.46 10.126 11.627 11.45 2.706 1.13 10.588 1.383 45.342 1.383h11.13c34.937 0 33.18-.25 35.878-6.023 1.89-4.02.453-6.423-12.842-21.398-16.843-16.76-15.08-24.788-15.195-30.718-.24-7.104 5.354-29.455 34.43-29.455l77.443-.003zM259.773 222.308c1.59-4.333 3.73-10.19 6.64-18.143.91-2.493 1.745-4.775 2.51-6.868l2.276 6.714c.677 2 3.656 10.778 6.21 18.29-7.596 0-13.315 0-17.637.008zm43.152-76.755l-5.974.006-57.283.052-5.977.005-1.95 5.652-41.743 120.92-3.802 11.013 11.65.12 34.103.358 6.33.067 1.805-6.067 3.637-12.238 49.166.393 3.89 12.434 1.853 5.915 6.197-.027 34.45-.158 11.747-.054-3.858-11.097-42.278-121.647-1.963-5.65zm-33.67 26.236c-.09.35-5.4 14.92-10.728 29.492-5.372 14.69-10.763 29.383-10.837 29.497.142-.043 19.22-.085 31.446-.085 5.722 0 9.943.01 10.02.03a.03.03 0 0 1 .003.006v-.002l-.003-.002c-.214-.556-19.842-58.227-19.903-58.937v-.007.006zm27.702-17.836L339.235 275.6l-34.45.157-5.72-18.27-61.595-.494-5.436 18.292-34.103-.358 41.744-120.92 57.283-.053zM319.61 0l-8.41.013-190.518.283c-10.974 0-21.167 4.74-28.69 13.35-6.102 6.98-10.107 16.19-10.71 24.637-1.022 14.178 2.24 19.302 17.897 36.94 4.542 5.12 8.862 9.987 10.304 12.054a1.417 1.417 0 0 1-.057.167c-.015.013-.04.032-.073.055l-.863.6H0v50.507h83.593c29.93 0 44.702-.028 53.405-.666 9.958-.73 13.136-2.438 17.895-5.394l.594-.368c14.966-9.257 22.68-31.3 16.183-46.25-2.004-4.575-14.694-20.723-16.134-22.55-3.984-5.043-10.56-13.368-11.6-15.777.025-.202.075-.412.127-.558.173-.044.505-.102 1.05-.102l61.765-.176v91.839h52.624V46.813h60.107V0zm-8.396 8.408V38.42h-60.106v91.79h-35.835V38.348l-70.16.2c-8.457 0-9.59 6.737-9.59 9.318 0 3.17 2.067 6.338 13.42 20.715 7.367 9.34 14.135 18.658 15.027 20.694 4.87 11.208-1.427 28.67-12.896 35.764-8.175 5.05-6.778 5.174-67.48 5.174H8.394V96.495h102.73l3.033-2.11c2.046-1.426 3.232-3.39 3.683-6.075.63-3.862.305-4.366-12.38-18.658-14.996-16.896-16.58-19.98-15.804-30.77.88-12.308 11.857-30.19 31.04-30.19l190.518-.284zM370.72 78.188c2.59-7.374 6.196-17.48 9.46-26.562 3.093 9.07 6.515 19.146 9.01 26.54l-18.47.022zM414.16.945h-69.887L342.32 6.6l-41.7 120.83-3.842 11.134h52.975l1.836-5.9 3.63-11.67 48.934.216 3.776 12.356 1.806 5.907 6.178.035 34.387.188 11.855.065-3.873-11.202L416.12 6.598 414.16.944zm-55.102 85.653l41.765-.052c.144 0-20.295-60.026-20.432-60.068-.148-.005-21.803 60.12-21.332 60.12zm49.12-77.258l42.164 121.96-34.387-.188-5.583-18.27-61.322-.273-5.48 17.598h-35.014l41.7-120.828h57.923zM529.39 42.092h10.4c14.72 0 17.635.245 19.432 1.03 3.41 1.477 3.756 2.194 4.024 5.2.27 2.99-.102 4.193-3.066 6.415-.098.073-.172.13-.234.174-1.957.363-9.22.363-18.308.363h-12.246v-13.18zM526.725.945h-52.257V138.563H530.157l-.03-8.425-.092-26.46.882.837c26.22 24.948 33.952 30.614 39.054 32.344 3.917 1.32 10.475 1.703 46.368 1.703H664.834l-.164-8.557-.64-33.245-.154-8.115-8.116-.116-62.333-.894-1.306-1.015c-.415-.323-.92-.75-1.457-1.236l1.267-.753c15.743-9.394 23.994-24.562 22.633-41.61-.906-11.5-2.96-16.682-9.99-25.186-6.91-8.362-16.392-13.955-26.702-15.746-5.73-.994-34.503-1.143-51.146-1.143zm-5.728 62.723h20.642c20.085 0 20.713-.063 23.58-2.215 5.12-3.84 6.934-7.797 6.39-13.873-.556-6.265-2.97-9.528-9.025-12.152-3.41-1.49-6.696-1.73-22.793-1.73h-18.794v29.97zm5.728-54.328c27.2 0 46.076.39 49.707 1.018 8.396 1.46 15.982 5.94 21.67 12.824 5.95 7.2 7.314 10.64 8.09 20.505 1.114 13.926-5.51 25.94-18.573 33.738-3.81 2.277-7.722 4.492-8.7 4.932-1.5.682-1.3 1.333 1.386 4.48 1.73 2.027 4.733 4.912 6.663 6.413l3.526 2.74 65.143.933.64 33.245h-39.94c-30.89 0-40.777-.283-43.673-1.26-4.334-1.47-14.764-10.304-35.962-30.474l-15.132-14.398.16 46.132h-38.87V9.34h43.866z"/></g></svg>