<?xml version="1.0" encoding="UTF-8" standalone="no"?>
<svg width="665px" height="286px" viewBox="0 0 665 286" version="1.1" xmlns="http://www.w3.org/2000/svg" xmlns:xlink="http://www.w3.org/1999/xlink" xmlns:sketch="http://www.bohemiancoding.com/sketch/ns">
    <!-- Generator: Sketch 3.4 (15575) - http://www.bohemiancoding.com/sketch -->
    <title>Logo</title>
    <desc>Created with Sketch.</desc>
    <defs></defs>
    <g id="Welcome" stroke="none" stroke-width="1" fill="none" fill-rule="evenodd" sketch:type="MSPage">
        <g id="Desktop-HD" sketch:type="MSArtboardGroup" transform="translate(-360.000000, -268.000000)" fill="#FFE81F">
            <g id="Splash-Screen" sketch:type="MSLayerGroup" transform="translate(-105.000000, -44.000000)">
                <g id="Logo" transform="translate(465.000000, 312.000000)" sketch:type="MSShapeGroup">
                    <path d="M1.89030421,146.498576 L5.6689851,157.605392 L46.7822085,278.442386 L48.7182447,284.134315 L54.7299256,284.134315 L78.4765373,284.134315 L84.3507543,284.134315 L86.3633925,278.614487 L104.921007,227.718742 C106.520205,232.371767 108.248471,237.386835 109.976738,242.397704 C116.366182,260.924805 122.769267,279.417276 122.769267,279.417276 L124.725241,285.066179 L130.702293,285.066179 L154.690254,285.066179 L160.684096,285.066179 L162.629576,279.396288 L204.267471,158.067126 L208.083928,146.945619 L196.327099,146.945619 L161.814237,146.945619 L155.826691,146.945619 L153.877014,152.608164 C150.75627,161.669706 146.614517,173.628632 143.072987,183.750064 C142.538872,182.214797 141.982721,180.600824 141.407682,178.911296 L132.310935,152.193652 L130.373849,146.504872 L124.364267,146.504872 L85.8009451,146.504872 L79.8553728,146.504872 L77.8815603,152.113898 L66.9127873,183.28728 C63.2894091,173.101835 59.0888926,161.232107 55.8779058,152.129639 L53.903044,146.532157 L47.9669157,146.527959 L13.6219489,146.505922 L1.89030421,146.498576 Z M124.364267,154.901096 L133.462063,181.619789 C138.384527,196.067884 142.779172,207.622793 143.352112,207.622793 C143.361557,207.622793 143.369951,207.618595 143.377297,207.612299 C144.006902,207.056118 161.814237,155.340794 161.814237,155.340794 L196.327099,155.340794 L154.689205,276.671004 L130.701244,276.671004 C130.701244,276.671004 105.097297,202.718961 105.202231,202.437723 L78.4754879,275.73914 L54.7288762,275.73914 L13.6156528,154.901096 L47.9606197,154.923134 C47.9606197,154.923134 66.7742742,208.254529 67.0250669,208.254529 C67.0261163,208.254529 67.0261163,208.25348 67.0271656,208.252431 L85.7998958,154.900047 L124.364267,154.900047 L124.364267,154.901096 Z" id="Fill-1"></path>
                    <path d="M419.510978,201.936111 C419.524619,199.81528 419.537211,197.437347 419.550853,195.055216 C419.561346,192.956423 419.57079,190.853431 419.573938,188.926739 L431.312928,188.987604 C438.059149,189.024333 448.210484,189.079951 450.189543,189.641378 C452.71531,191.174547 454.124576,193.545134 453.971372,196.000723 C453.887425,197.32716 453.255721,199.765959 449.961836,201.196286 C448.125487,201.993828 445.197823,202.242535 430.475553,202.242535 C425.805981,202.242535 422.20359,202.107163 419.510978,201.936111 L419.510978,201.936111 Z M664.572233,146.498576 L656.15546,146.498576 L578.714013,146.498576 C561.89096,146.498576 551.940049,153.139159 546.555875,158.710407 C537.797016,167.769849 535.73401,179.177842 535.892461,184.556001 C535.900855,185.004093 535.895609,185.463729 535.890362,185.943304 C535.81376,194.68373 537.101303,204.578492 553.371352,220.83155 C556.587585,224.454068 561.968612,230.526928 564.002237,233.544993 C559.555125,234.091729 548.283092,234.091729 536.444415,234.091729 L531.415967,234.091729 L525.312994,234.08963 C504.426888,234.08963 486.814731,234.029814 483.204994,233.317274 C482.70026,232.987763 481.991954,232.421089 481.213342,231.745277 C488.429668,227.301082 495.725744,220.412841 499.16129,214.522577 C501.246332,210.940985 503.545441,204.823002 504.510836,200.284361 C506.651494,190.183916 503.120457,177.99937 495.065708,167.6817 C485.6678,155.644069 471.995922,148.442059 457.555925,147.921558 L457.40377,147.915262 L457.251616,147.915262 L420.745004,147.915262 L373.240238,147.915262 L364.828712,147.915262 L364.845501,156.328276 L365.077406,276.986873 L365.094195,285.328528 L373.435416,285.365257 L411.105748,285.532111 L419.487892,285.56884 L419.537211,277.186258 L419.699859,249.161067 C420.469027,249.891447 421.264428,250.650161 422.080817,251.433011 C447.503228,275.820993 456.036478,282.578059 463.594889,284.287527 C465.671537,284.750311 469.107083,285.51742 530.252247,285.53421 L533.168368,285.53421 C566.270914,285.53421 582.886197,285.53421 592.76995,284.579259 C604.091302,283.484738 607.732519,280.916864 613.191197,276.472668 L613.372733,276.324704 C624.584953,267.208593 630.501144,253.416371 628.813802,240.330393 C627.714092,231.819784 625.462203,228.284366 616.303546,216.857485 L613.581552,213.457439 C610.391552,209.47078 606.537319,204.656148 603.953838,201.41561 C601.869845,198.808909 600.232871,196.494989 599.24544,194.97966 C600.542427,194.976511 602.226621,194.974413 604.406105,194.974413 C621.610069,194.974413 655.705292,195.087747 656.047378,195.089846 L664.450509,195.117131 L664.471496,186.713561 L664.550197,154.910541 L664.572233,146.498576 Z M430.475553,210.63771 C446.603941,210.63771 449.877889,210.386904 453.310287,208.895711 C464.895024,203.858606 465.514135,188.979209 454.401603,182.376404 C451.968178,180.927187 448.840089,180.687924 431.35805,180.592429 L411.127784,180.48644 C411.294629,180.64385 411.063774,209.41831 411.063774,209.41831 C411.063774,209.41831 416.131047,210.63771 430.475553,210.63771 L430.475553,210.63771 Z M656.157558,154.89375 L656.078858,186.695721 C656.078858,186.695721 621.825184,186.581337 604.410302,186.581337 C598.616884,186.581337 594.687098,186.594979 594.500315,186.62856 C591.499197,187.175295 589.588345,193.556678 590.439362,196.357518 C590.858049,197.774203 593.997681,202.402043 597.3965,206.6521 C600.784825,210.903207 606.357881,217.860708 609.75775,222.108666 C618.487226,233.002455 619.684526,235.152669 620.49147,241.408123 C621.803147,251.567334 616.99821,262.563963 608.078802,269.815295 C599.140506,277.087615 599.531911,277.139035 533.173615,277.139035 L530.259592,277.139035 C489.901895,277.128541 468.558277,276.793784 465.451175,276.101182 C459.931635,274.8524 451.138149,267.674526 427.895221,245.374843 C419.535113,237.361649 411.830843,230.345382 411.435241,230.343283 C411.424748,230.343283 411.419501,230.349579 411.419501,230.360073 L411.145623,277.141134 L373.475291,276.97428 L373.243386,156.314634 L420.748152,156.314634 L457.254764,156.314634 C482.575389,157.228658 499.711145,182.455109 496.300783,198.542362 C495.52427,202.193213 493.551507,207.484272 491.913484,210.295606 C488.545096,216.067289 479.971971,223.47603 473.013783,226.656752 C470.443945,227.819484 468.34526,229.173206 468.34526,229.655928 C468.34526,231.450397 476.804007,239.781558 479.971971,241.104847 C482.678224,242.237147 490.559833,242.489002 525.314043,242.489002 C529.387589,242.489002 533.087569,242.491101 536.445464,242.491101 C571.38121,242.491101 569.623562,242.239245 572.32247,236.466514 C574.212335,232.447324 572.774737,230.044205 559.479572,215.069312 C542.636582,198.309396 544.400526,190.28151 544.285099,184.352418 C544.044799,177.248002 549.638842,154.896899 578.716112,154.896899 L656.157558,154.89375 L656.157558,154.89375 Z" id="Fill-3"></path>
                    <path d="M259.772734,222.308406 C261.362487,217.975447 263.504194,212.118763 266.411921,204.165384 C267.323799,201.672018 268.158026,199.389579 268.922997,197.297082 C269.61871,199.349702 270.376335,201.582819 271.19902,204.011123 C271.876895,206.011273 274.855977,214.788428 277.411125,222.300011 C269.813888,222.300011 264.094974,222.30106 259.772734,222.308406 L259.772734,222.308406 Z M302.924829,145.553424 L296.950924,145.558671 L239.667339,145.61219 L233.690286,145.617437 L231.739559,151.269488 L189.996731,272.190434 L186.194964,283.202805 L197.84476,283.323485 L231.948378,283.68133 L238.279059,283.747442 L240.082878,277.679829 L243.719898,265.441764 L292.885773,265.835287 L296.776733,278.268541 L298.628822,284.18504 L304.827286,284.157756 L339.276138,284.000346 L351.023522,283.945778 L347.166141,272.849456 L304.888148,151.203376 L302.924829,145.553424 Z M269.253539,171.789394 C269.166444,172.138843 263.855724,186.710767 258.527164,201.281642 C253.154533,215.973197 247.764063,230.664753 247.689559,230.779137 C247.689559,230.780187 247.68851,230.780187 247.689559,230.780187 L247.689559,230.779137 C247.83227,230.737161 266.909309,230.695185 279.136243,230.695185 C284.858306,230.695185 289.07876,230.70463 289.15746,230.725618 C289.15851,230.729816 289.15851,230.730865 289.15851,230.730865 L289.15851,230.727717 L289.15746,230.725618 C288.943394,230.170487 269.315451,172.498786 269.253539,171.789394 C269.254589,171.785196 269.254589,171.783097 269.254589,171.783097 C269.253539,171.783097 269.253539,171.785196 269.253539,171.789394 L269.253539,171.789394 Z M296.95722,153.953845 L339.235213,275.599925 L304.785312,275.757334 L299.066398,257.487336 L237.470017,256.99307 L232.034424,275.285106 L197.930806,274.927261 L239.673635,154.006315 L296.95722,153.953845 L296.95722,153.953845 Z" id="Fill-5"></path>
                    <path d="M319.608616,0 L311.200238,0.0125927618 L120.681687,0.295929903 C109.707667,0.295929903 99.5154072,5.03710474 91.9905751,13.6463562 C85.8897001,20.6269439 81.8854106,29.8374998 81.2809896,38.2830454 C80.2599797,52.4614458 83.5234337,57.5846011 99.1785684,75.2239122 C103.72222,80.3418205 108.042361,85.2099724 109.484157,87.2772841 C109.461072,87.3601865 109.440085,87.4137057 109.427493,87.4441382 C109.411753,87.456731 109.387618,87.4756201 109.354039,87.4987069 L108.49148,88.0989618 L8.39473679,88.0989618 L0,88.0989618 L0,96.4941364 L0,130.211256 L0,138.606431 L8.39473679,138.606431 L73.7372693,138.606431 L78.9178712,138.606431 L83.5926902,138.606431 C113.522026,138.606431 128.294664,138.578097 136.997907,137.940064 C146.956164,137.210733 150.133571,135.502315 154.893387,132.546164 L155.487315,132.177826 C170.453032,122.921097 178.165696,100.877467 171.670269,85.9267104 C169.666025,81.3534391 156.976331,65.2053208 155.535585,63.3793703 C151.552282,58.3349198 144.977104,50.0100549 143.936157,47.6006398 C143.961341,47.3981062 144.01066,47.1882268 144.063127,47.0423606 C144.236269,46.998286 144.567861,46.9395198 145.113519,46.9395198 L206.877795,46.7642705 L206.877795,130.209157 L206.877795,138.604332 L215.272531,138.604332 L251.107564,138.604332 L259.502301,138.604332 L259.502301,130.209157 L259.502301,46.8135921 L311.21388,46.8135921 L319.608616,46.8135921 L319.608616,38.4184176 L319.608616,8.40566853 L319.608616,0 Z M311.21388,8.40776732 L311.21388,38.4205164 L251.107564,38.4205164 L251.107564,130.211256 L215.272531,130.211256 L215.272531,38.3470586 L145.113519,38.546444 C136.655821,38.546444 135.522532,45.2835716 135.522532,47.8650878 C135.522532,51.0342662 137.589736,54.2034445 148.943617,68.580181 C156.309999,77.9198127 163.078256,87.2384564 163.970196,89.2742863 C168.839144,100.481844 162.543091,117.943807 151.073782,125.03773 C142.899407,130.088477 144.296081,130.212306 83.5926902,130.212306 L73.7372693,130.212306 L8.39473679,130.212306 L8.39473679,96.4951858 L111.125328,96.4951858 L114.157927,94.3858982 C116.204144,92.9587185 117.389901,90.9963465 117.841118,88.3098906 C118.470723,84.4481103 118.145427,83.9443998 105.458881,69.6516151 C90.4637823,52.7563263 88.8792757,49.6710997 89.6557889,38.8833004 C90.5372362,26.5738757 101.513355,8.69215386 120.695328,8.69215386 L311.21388,8.40776732 L311.21388,8.40776732 Z" id="Fill-7"></path>
                    <path d="M370.720701,78.1881038 C373.310477,70.8139924 376.916016,60.708301 380.17947,51.6257715 C383.272931,60.6967576 386.694835,70.7720165 389.19122,78.1650171 L370.720701,78.1881038 Z M414.159266,0.945152103 L408.179065,0.945152103 L350.255382,0.945152103 L344.273082,0.945152103 L342.321306,6.60140096 L300.620451,127.43 L296.77776,138.5641 L308.556625,138.5641 L343.573171,138.5641 L349.752747,138.5641 L351.589095,132.663342 L355.220868,120.993 L404.153789,121.210225 L407.930371,133.565823 L409.736289,139.472878 L415.913766,139.507508 L450.300707,139.6964 L462.155124,139.761462 L458.282003,128.558102 L416.119437,6.59720338 L414.159266,0.945152103 Z M359.058313,86.5979699 L400.823177,86.5455001 C400.824227,86.5455001 400.824227,86.5465495 400.824227,86.5465495 C400.966937,86.5465495 380.527852,26.520002 380.391437,26.4780261 C380.242431,26.4727791 358.587158,86.5979699 359.058313,86.5979699 L359.058313,86.5979699 Z M408.179065,9.34032666 L450.341631,131.301225 L415.95469,131.112334 L410.37219,112.842335 L349.049688,112.569492 L343.571072,130.167877 L308.555576,130.167877 L350.255382,9.34032666 L408.179065,9.34032666 L408.179065,9.34032666 Z" id="Fill-9"></path>
                    <path d="M529.39102,42.0920014 L539.79,42.0920014 C554.509122,42.0920014 557.425243,42.3365109 559.221717,43.1214597 C562.632079,44.5990104 562.978362,45.3157484 563.245944,48.3233197 C563.514575,51.3120019 563.144158,52.5146106 560.179766,54.7372331 C560.082177,54.8096415 560.007674,54.8663089 559.945763,54.911433 C557.98874,55.2734749 550.726243,55.2734749 541.637891,55.2734749 L529.392069,55.2734749 L529.39102,42.0920014 Z M526.723592,0.945152103 L482.861092,0.945152103 L474.466356,0.945152103 L474.466356,9.34032666 L474.466356,130.167877 L474.466356,138.563051 L482.861092,138.563051 L521.731872,138.563051 L530.15599,138.563051 L530.126609,130.138493 L530.034266,103.676903 L530.915714,104.515371 C557.134575,129.462682 564.868227,135.129425 569.970128,136.858831 C573.887322,138.180021 580.444661,138.563051 616.338457,138.563051 L656.277466,138.563051 L664.833802,138.563051 L664.670104,130.006269 L664.031055,96.7613782 L663.875752,88.6453431 L655.760141,88.5288601 L593.427121,87.6358234 L592.12069,86.6210567 C591.705151,86.2967931 591.201467,85.8686392 590.663154,85.3838178 C591.131161,85.1067771 591.559292,84.8517736 591.92971,84.6314003 C607.67299,75.2361506 615.923967,60.0681689 614.56297,43.0196682 C613.657388,31.5193285 611.603825,26.3384564 604.573233,17.8341445 C597.664365,9.47150127 588.18146,3.87926561 577.870625,2.08794524 C572.141217,1.09416645 543.367207,0.945152103 526.723592,0.945152103 L526.723592,0.945152103 Z M520.996283,63.6676 L541.637891,63.6676 C561.723348,63.6676 562.350855,63.6046362 565.216608,61.4533727 C570.338447,57.6125804 572.15171,53.6563544 571.608151,47.5803468 C571.052,41.3154478 568.638513,38.0518237 562.58276,35.4283316 C559.172398,33.9381881 555.886908,33.6968269 539.79,33.6968269 L520.996283,33.6968269 L520.996283,63.6676 L520.996283,63.6676 Z M526.723592,9.34032666 C553.923589,9.34032666 572.800204,9.72860349 576.430927,10.3582416 C584.825664,11.8169032 592.412407,16.2978276 598.099842,23.1818707 C604.049611,30.3807329 605.413756,33.8227545 606.190269,43.6870846 C607.303621,57.6125804 600.681223,69.628174 587.616914,77.4251923 C583.807802,79.7023834 579.894806,81.9166107 578.917868,82.3573574 C577.417309,83.0394653 577.617733,83.6900914 580.303,86.8382818 C582.033365,88.8636177 585.035533,91.7494589 586.966322,93.2500964 L590.492111,95.9890221 L655.635269,96.9229853 L656.274318,130.167877 L616.335309,130.167877 C585.443727,130.167877 575.557875,129.884539 572.66169,128.9086 C568.327908,127.439445 557.898497,118.603524 536.699687,98.4341167 L521.568174,84.0363923 L521.727674,130.167877 L482.856895,130.167877 L482.856895,9.34032666 L526.723592,9.34032666 L526.723592,9.34032666 Z" id="Fill-11"></path>
                </g>
            </g>
        </g>
    </g>
</svg>