<svg width="665" height="286" viewBox="0 0 665 286" xmlns="http://www.w3.org/2000/svg"><title>Logo</title><g fill="#FFE81F" fill-rule="evenodd"><path d="M1.89 146.499l3.779 11.106 41.113 120.837 1.936 5.692h35.633l2.012-5.52 18.558-50.895c1.6 4.653 3.327 9.668 5.056 14.679 6.39 18.527 12.792 37.02 12.792 37.02l1.956 5.648h35.959l1.946-5.67 41.637-121.329 3.817-11.121h-52.257l-1.95 5.662c-3.12 9.062-7.262 21.02-10.804 31.142-.534-1.535-1.09-3.15-1.665-4.839l-9.097-26.717-1.937-5.69H79.855l-1.973 5.61-10.97 31.173a13386.736 13386.736 0 0 1-11.034-31.157l-1.975-5.598-5.936-.004-34.345-.022-11.732-.007zm122.474 8.402l9.098 26.719c4.923 14.448 9.317 26.003 9.89 26.003.01 0 .018-.004.025-.01.63-.557 18.437-52.272 18.437-52.272h34.513L154.69 276.67h-23.988s-25.604-73.952-25.499-74.233l-26.727 73.301H54.73L13.616 154.901l34.345.022s18.813 53.332 19.064 53.332l.002-.003L85.8 154.9h38.564v.001zM419.511 201.936c.014-2.12.026-4.499.04-6.88.01-2.1.02-4.203.023-6.13l11.739.062c6.746.036 16.897.092 18.877.653 2.525 1.534 3.935 3.904 3.781 6.36-.084 1.326-.715 3.765-4.01 5.195-1.836.798-4.763 1.047-19.485 1.047-4.67 0-8.272-.136-10.965-.307zM664.572 146.5h-85.858c-16.823 0-26.774 6.64-32.158 12.211-8.759 9.06-10.822 20.468-10.664 25.846.009.448.004.908-.002 1.387-.076 8.74 1.211 18.635 17.481 34.889 3.217 3.622 8.598 9.695 10.631 12.713-4.447.547-15.719.547-27.558.547h-5.028l-6.103-.002c-20.886 0-38.498-.06-42.108-.773-.505-.33-1.213-.896-1.992-1.572 7.217-4.444 14.513-11.332 17.948-17.222 2.085-3.582 4.384-9.7 5.35-14.239 2.14-10.1-1.39-22.285-9.445-32.602-9.398-12.038-23.07-19.24-37.51-19.76l-.152-.007h-92.575l.017 8.413.231 120.659.017 8.342 8.341.036 37.67.167 8.383.037.05-8.383.162-28.025c.769.73 1.564 1.49 2.38 2.272 25.423 24.388 33.956 31.145 41.515 32.855 2.077.462 5.512 1.23 66.657 1.246h2.916c33.103 0 49.718 0 59.602-.955 11.321-1.094 14.963-3.662 20.421-8.106l.182-.148c11.212-9.116 17.128-22.909 15.44-35.995-1.099-8.51-3.35-12.046-12.51-23.473l-2.721-3.4c-3.19-3.986-7.045-8.8-9.628-12.041-2.084-2.607-3.721-4.921-4.709-6.436 1.297-.003 2.982-.006 5.161-.006 17.204 0 51.3.114 51.641.116l8.404.027.02-8.403.08-31.803.021-8.412zm-234.096 64.139c16.128 0 19.402-.251 22.834-1.742 11.585-5.037 12.204-19.917 1.092-26.52-2.434-1.449-5.562-1.688-23.044-1.784l-20.23-.106c.167.158-.064 28.932-.064 28.932s5.067 1.22 19.412 1.22zm225.682-55.744l-.08 31.802s-34.253-.115-51.668-.115c-5.793 0-9.723.014-9.91.048-3 .546-4.912 6.928-4.06 9.729.418 1.416 3.558 6.044 6.956 10.294 3.389 4.251 8.962 11.209 12.362 15.457 8.73 10.893 9.927 13.044 10.733 19.3 1.312 10.158-3.493 21.155-12.412 28.406-8.938 7.273-8.547 7.324-74.905 7.324h-2.914c-40.358-.01-61.702-.345-64.809-1.038-5.52-1.249-14.313-8.426-37.556-30.726-8.36-8.013-16.064-15.03-16.46-15.032-.01 0-.015.007-.015.017l-.274 46.781-37.67-.167-.233-120.66h84.012c25.32.915 42.456 26.141 39.046 42.228-.777 3.651-2.75 8.942-4.388 11.754-3.368 5.771-11.941 13.18-18.9 16.36-2.57 1.163-4.668 2.517-4.668 3 0 1.794 8.459 10.126 11.627 11.449 2.706 1.132 10.588 1.384 45.342 1.384l11.131.002c34.936 0 33.179-.252 35.877-6.024 1.89-4.02.453-6.423-12.842-21.398-16.843-16.76-15.08-24.787-15.195-30.717-.24-7.104 5.354-29.455 34.431-29.455l77.442-.003zM259.773 222.308a18857.4 18857.4 0 0 0 6.639-18.143l2.511-6.868 2.276 6.714c.678 2 3.657 10.777 6.212 18.289-7.597 0-13.316.001-17.638.008zm43.152-76.755l-5.974.006-57.284.053-5.977.005-1.95 5.652-41.743 120.921-3.802 11.013 11.65.12 34.103.358 6.331.066 1.804-6.067 3.637-12.238 49.166.393 3.89 12.434 1.853 5.916 6.198-.027 34.45-.158 11.747-.054-3.858-11.097-42.278-121.646-1.963-5.65zm-33.671 26.236c-.088.35-5.398 14.922-10.727 29.493-5.372 14.691-10.763 29.383-10.837 29.497v.001c.142-.043 19.22-.085 31.446-.085 5.722 0 9.943.01 10.021.03a.03.03 0 0 1 .002.006v-.003l-.002-.002c-.214-.556-19.842-58.227-19.903-58.937v-.006.006zm27.703-17.835L339.235 275.6l-34.45.157-5.719-18.27-61.596-.494-5.436 18.292-34.103-.358 41.743-120.92 57.283-.053zM319.609 0L311.2.013 120.682.296c-10.974 0-21.167 4.741-28.691 13.35-6.101 6.98-10.106 16.191-10.71 24.637-1.021 14.178 2.242 19.302 17.898 36.94 4.543 5.119 8.863 9.987 10.305 12.054a1.417 1.417 0 0 1-.057.167c-.015.013-.04.032-.073.055l-.863.6H0V138.606h83.593c29.929 0 44.702-.028 53.405-.666 9.958-.73 13.136-2.438 17.895-5.394l.594-.368c14.966-9.257 22.679-31.3 16.183-46.251-2.004-4.574-14.694-20.722-16.134-22.548-3.984-5.044-10.559-13.369-11.6-15.778.025-.203.075-.413.127-.559.173-.044.505-.102 1.05-.102l61.765-.176V138.604h52.624V46.814h60.107V0zm-8.395 8.408V38.42h-60.106v91.79h-35.835V38.347l-70.16.2c-8.457 0-9.59 6.737-9.59 9.318 0 3.17 2.067 6.338 13.42 20.715 7.367 9.34 14.135 18.658 15.027 20.694 4.87 11.208-1.427 28.67-12.896 35.764-8.175 5.05-6.778 5.174-67.481 5.174H8.395V96.495h102.73l3.033-2.11c2.046-1.426 3.232-3.389 3.683-6.075.63-3.862.304-4.366-12.382-18.658-14.995-16.896-16.58-19.98-15.803-30.769.881-12.31 11.857-30.19 31.04-30.19l190.518-.285zM370.72 78.188c2.59-7.374 6.196-17.48 9.46-26.562 3.093 9.07 6.515 19.146 9.011 26.539l-18.47.023zM414.16.945h-69.887l-1.952 5.656-41.7 120.829-3.843 11.134h52.975l1.836-5.9 3.632-11.671 48.933.217 3.776 12.356 1.806 5.907 6.178.035 34.387.188 11.854.065-3.873-11.203-42.163-121.96-1.96-5.653zm-55.102 85.653l41.765-.052h.001c.143 0-20.296-60.026-20.433-60.068-.149-.005-21.804 60.12-21.333 60.12zM408.18 9.34l42.163 121.961-34.387-.189-5.583-18.27-61.322-.273-5.479 17.599h-35.015l41.7-120.828h57.923zM529.391 42.092h10.399c14.72 0 17.635.245 19.432 1.03 3.41 1.477 3.756 2.194 4.024 5.201.269 2.989-.102 4.192-3.066 6.414-.098.073-.172.13-.234.174-1.957.362-9.22.362-18.308.362h-12.246l-.001-13.181zM526.724.945H474.466V138.563h55.69l-.03-8.425-.092-26.461.882.838c26.219 24.948 33.952 30.614 39.054 32.344 3.917 1.321 10.475 1.704 46.368 1.704H664.834l-.164-8.557-.639-33.245-.155-8.116-8.116-.116-62.333-.893-1.306-1.015c-.416-.324-.92-.752-1.458-1.237l1.267-.753c15.743-9.395 23.994-24.563 22.633-41.611-.906-11.5-2.96-16.682-9.99-25.186-6.909-8.362-16.392-13.955-26.702-15.746-5.73-.994-34.504-1.143-51.147-1.143zm-5.728 62.723h20.642c20.085 0 20.713-.063 23.579-2.215 5.121-3.84 6.935-7.797 6.391-13.873-.556-6.265-2.97-9.528-9.025-12.152-3.41-1.49-6.696-1.731-22.793-1.731h-18.794v29.97zm5.728-54.328c27.2 0 46.076.389 49.707 1.018 8.395 1.459 15.981 5.94 21.669 12.824 5.95 7.199 7.314 10.64 8.09 20.505 1.114 13.926-5.509 25.941-18.573 33.738-3.81 2.277-7.722 4.492-8.7 4.932-1.5.682-1.3 1.333 1.386 4.481 1.73 2.026 4.733 4.911 6.663 6.412l3.526 2.739 65.143.934.64 33.245h-39.94c-30.891 0-40.777-.283-43.673-1.26-4.334-1.469-14.764-10.304-35.962-30.474l-15.132-14.398.16 46.132h-38.871V9.34h43.867z"/></g></svg>